<?xml version="1.0" encoding="utf-8"?>
<!-- Generator: Adobe Illustrator 23.1.0, SVG Export Plug-In . SVG Version: 6.00 Build 0)  -->
<svg version="1.1" id="Capa_1" xmlns="http://www.w3.org/2000/svg" xmlns:xlink="http://www.w3.org/1999/xlink" x="0px" y="0px"
	 viewBox="0 0 30 30" style="enable-background:new 0 0 30 30;" xml:space="preserve">
<style type="text/css">
	.st0{fill:#FFFFFF;}
</style>
<path class="st0" d="M2.5,15C2.5,8.1,8.1,2.5,15,2.5s12.5,5.6,12.5,12.6c0,6.9-5.6,12.5-12.6,12.4C8.1,27.5,2.5,21.8,2.5,15z
	 M13.8,11.9L13.8,11.9c0,1,0,2,0,3c0,0.6,0.3,1,0.8,1.2c0.4,0.2,0.8,0.4,1.3,0.6c1.2,0.6,2.4,1.2,3.6,1.8c0.8,0.4,1.7-0.1,1.9-1
	c0.1-0.5-0.2-1-0.8-1.3c-1.3-0.7-2.6-1.3-4-2c-0.2-0.1-0.3-0.2-0.3-0.4c0-1.7,0-3.3,0-5c0-0.2,0-0.4,0-0.5c-0.2-0.6-0.7-1-1.3-0.9
	S13.9,8,13.9,8.6C13.8,9.7,13.8,10.8,13.8,11.9z"/>
</svg>
