<svg xmlns="http://www.w3.org/2000/svg" width="27.3" height="24.2" viewBox="0 0 27.3 24.2">
  <path id="icons_heart_line" d="M20.9,4.9a5.663,5.663,0,0,1,1.8.3c2,.6,3.1,2,3.7,4.2a6.374,6.374,0,0,1,.2.9.756.756,0,0,0,.1.4v1a7.188,7.188,0,0,1-1.3,3.5,18.77,18.77,0,0,1-3,3.4c-2.1,1.9-4.4,3.8-6.5,5.7L15,25l-.5-.4c-1.7-1.5-3.4-3-5.2-4.4a28.468,28.468,0,0,1-4.2-4.3,7.668,7.668,0,0,1-1.5-3c-.1-.3-.1-.6-.2-.9a.756.756,0,0,0-.1-.4V10.4A6.958,6.958,0,0,1,4.6,7.1,5.238,5.238,0,0,1,8.5,4.9h.6A5.057,5.057,0,0,1,13,6.8c0,.1.1.2.3.4.1.1.1.2.2.2L15,9.1l1.5-1.7c.1-.2.3-.3.4-.5a4.62,4.62,0,0,1,.7-.7,4.771,4.771,0,0,1,3.3-1.3m0-2a7.284,7.284,0,0,0-4.8,2,15.38,15.38,0,0,0-1.2,1.3c-.2-.2-.4-.5-.6-.7A6.536,6.536,0,0,0,9,2.9H8.2A7.2,7.2,0,0,0,3,5.9a7.578,7.578,0,0,0-1.6,4.3v1.5c.1.5.2,1.1.3,1.6A8.723,8.723,0,0,0,3.6,17a32.616,32.616,0,0,0,4.5,4.6c1.9,1.7,3.9,3.4,5.8,5a2.078,2.078,0,0,0,1.2.5,1.666,1.666,0,0,0,1.1-.4c2.5-2.2,5.1-4.4,7.6-6.6a17.023,17.023,0,0,0,3.3-3.8,9.061,9.061,0,0,0,1.6-4.4V10.5a9.005,9.005,0,0,0-.3-1.6,7.487,7.487,0,0,0-5-5.6,7.658,7.658,0,0,0-2.5-.4Z" transform="translate(-1.4 -2.9)" fill="#2b7bed"/>
</svg>
