<svg xmlns="http://www.w3.org/2000/svg" width="24.3" height="25.1" viewBox="0 0 24.3 25.1">
  <g id="icons_calenar" transform="translate(-2.8 -2.4)">
    <path id="Trazado_9814" data-name="Trazado 9814" d="M25.2,27.5H4.8a.367.367,0,0,1-.3-.1,2.186,2.186,0,0,1-1.7-2.3V7.6c0-.3.1-.6.1-.9a2.13,2.13,0,0,1,2-1.4V8.2a2.5,2.5,0,0,0,2.5,2.6H8.9a2.442,2.442,0,0,0,2.5-2.6V5.3h7V8.2A2.522,2.522,0,0,0,21,10.8h1.4A2.522,2.522,0,0,0,25,8.2V5.3a9.439,9.439,0,0,1,.9.3,2.226,2.226,0,0,1,1.2,2.2V25.6a2.239,2.239,0,0,1-.8,1.5A2.3,2.3,0,0,1,25.2,27.5ZM15,14H6.8a1,1,0,0,0-1.1,1.1v8.8A1,1,0,0,0,6.8,25H23.2a.959.959,0,0,0,1.1-1.1V15.1A.959.959,0,0,0,23.2,14Z" fill="#fff"/>
    <path id="Trazado_9815" data-name="Trazado 9815" d="M20.1,5.8V3.5c0-.7.3-1,1-1h1.3a.8.8,0,0,1,.9.9V8.2a.8.8,0,0,1-.9.9H21a.8.8,0,0,1-.9-.9Z" fill="#fff"/>
    <path id="Trazado_9816" data-name="Trazado 9816" d="M9.8,5.8V8.1c0,.7-.3,1-1,1H7.5c-.7,0-1-.3-1-1V3.4a.9.9,0,0,1,1-1H8.8a.9.9,0,0,1,1,1Z" fill="#fff"/>
    <path id="Trazado_9817" data-name="Trazado 9817" d="M15,15.7h.9a.53.53,0,0,1,.6.6v1.8a.53.53,0,0,1-.6.6H14a.53.53,0,0,1-.6-.6V16.3a.53.53,0,0,1,.6-.6Z" fill="#fff"/>
    <path id="Trazado_9818" data-name="Trazado 9818" d="M16.6,22.2v.9a.53.53,0,0,1-.6.6H14.2c-.4,0-.6-.2-.6-.7V21.2c0-.4.2-.6.7-.7h1.8a.632.632,0,0,1,.7.7A1.978,1.978,0,0,0,16.6,22.2Z" fill="#fff"/>
    <path id="Trazado_9819" data-name="Trazado 9819" d="M10.1,15.7H11a.53.53,0,0,1,.6.6v2a.53.53,0,0,1-.6.6H9a.53.53,0,0,1-.6-.6V16.5a.53.53,0,0,1,.6-.6A2.153,2.153,0,0,1,10.1,15.7Z" fill="#fff"/>
    <path id="Trazado_9820" data-name="Trazado 9820" d="M20,15.7h.9a.53.53,0,0,1,.6.6v1.9a.53.53,0,0,1-.6.6H19a.53.53,0,0,1-.6-.6V16.3c0-.4.2-.6.7-.6Z" fill="#fff"/>
    <path id="Trazado_9821" data-name="Trazado 9821" d="M10,23.8H9.1a.53.53,0,0,1-.6-.6V21.3a.53.53,0,0,1,.6-.6H11a.53.53,0,0,1,.6.6v1.9a.53.53,0,0,1-.6.6Z" fill="#fff"/>
    <path id="Trazado_9822" data-name="Trazado 9822" d="M21.5,22.2v.9a.53.53,0,0,1-.6.6H19a.53.53,0,0,1-.6-.6V21.2a.53.53,0,0,1,.6-.6h1.9a.53.53,0,0,1,.6.6Z" fill="#fff"/>
  </g>
</svg>
