<svg xmlns="http://www.w3.org/2000/svg" width="27.5" height="24.205" viewBox="0 0 27.5 24.205">
  <g id="icons_heart" transform="translate(-1.3 -2.834)">
    <path id="Trazado_9814" data-name="Trazado 9814" d="M1.3,11.7V10.2A8.5,8.5,0,0,1,3,5.9a7.079,7.079,0,0,1,5.3-3,7.32,7.32,0,0,1,6.2,2.5c.2.2.4.5.6.7.4-.4.8-.9,1.2-1.3a7.075,7.075,0,0,1,7.2-1.6,7.487,7.487,0,0,1,5,5.6c.1.5.2,1,.3,1.6v1.4a8.712,8.712,0,0,1-1.6,4.4A20.029,20.029,0,0,1,23.9,20c-2.5,2.2-5,4.4-7.6,6.6a1.605,1.605,0,0,1-2.3-.1c-1.9-1.7-3.9-3.3-5.8-5a32.616,32.616,0,0,1-4.5-4.6,12.979,12.979,0,0,1-1.9-3.7A4.424,4.424,0,0,1,1.3,11.7Z" fill="#2b7bed"/>
  </g>
</svg>
