<svg xmlns="http://www.w3.org/2000/svg" width="25" height="24.9" viewBox="0 0 25 24.9">
  <path id="icons_home" d="M2.5,15.3v-.7a3.157,3.157,0,0,1,1.1-1.7l9.3-9.3a3.073,3.073,0,0,1,1.8-1.1h.7a3.157,3.157,0,0,1,1.7,1.1l9.3,9.3a3.073,3.073,0,0,1,1.1,1.8v.7a2.276,2.276,0,0,1-2.3,1.9h-.4v7.5a2.672,2.672,0,0,1-1.9,2.5c-.2,0-.3.1-.5.1H17.9a.961.961,0,0,1-.6-.9V20.9A1.208,1.208,0,0,0,16,19.6H13.9A1.265,1.265,0,0,0,12.5,21v5.5c0,.5-.1.8-.6.9H7.3A2.67,2.67,0,0,1,5,24.6V17.2H4.6a2.188,2.188,0,0,1-2-1.3A1.76,1.76,0,0,0,2.5,15.3Z" transform="translate(-2.5 -2.5)" fill="#2b7bed"/>
</svg>
