<svg xmlns="http://www.w3.org/2000/svg" xmlns:xlink="http://www.w3.org/1999/xlink" width="201" height="239.678" viewBox="0 0 201 239.678">
  <defs>
    <filter id="logo" x="21.639" y="0" width="156.933" height="178.93" filterUnits="userSpaceOnUse">
      <feOffset dy="1" input="SourceAlpha"/>
      <feGaussianBlur stdDeviation="3" result="blur"/>
      <feFlood flood-color="#2b7bed" flood-opacity="0.639"/>
      <feComposite operator="in" in2="blur"/>
      <feComposite in="SourceGraphic"/>
    </filter>
    <filter id="_57MOVIES" x="0" y="171.678" width="201" height="68" filterUnits="userSpaceOnUse">
      <feOffset dy="1" input="SourceAlpha"/>
      <feGaussianBlur stdDeviation="3" result="blur-2"/>
      <feFlood flood-color="#2b7bed" flood-opacity="0.639"/>
      <feComposite operator="in" in2="blur-2"/>
      <feComposite in="SourceGraphic"/>
    </filter>
  </defs>
  <g id="logo-login" transform="translate(-631 -153.322)">
    <g transform="matrix(1, 0, 0, 1, 631, 153.32)" filter="url(#logo)">
      <path id="logo-2" data-name="logo" d="M72.15,2.038,69.67.6l-2.48,1.437L2.671,39.412.2,40.841v80.451l2.468,1.43,64.518,37.373,2.48,1.437,2.48-1.437,64.518-37.373,2.468-1.43V40.841l-2.468-1.43ZM10.1,113.517V54.742l49.212,45.465Zm59.983-10.079,26.618,31,32.538-18.848V87.438Zm21.4,34.022L63.74,105.153,14.894,118.364,69.67,150.093ZM11.662,48.11,64.511,96.935l40.634-63.712ZM97.871,28.376,69.67,12.04,20.083,40.764ZM71.574,96.89l39-61.155,18.662,10.81V81.294Z" transform="translate(30.44 7.4)" fill="#fff" fill-rule="evenodd"/>
    </g>
    <g transform="matrix(1, 0, 0, 1, 631, 153.32)" filter="url(#_57MOVIES)">
      <text id="_57MOVIES-2" data-name="57MOVIES" transform="translate(9 179.68)" fill="#fff" font-size="38" font-family="Roboto-Medium, Roboto" font-weight="500"><tspan x="0" y="40">57MOVIES</tspan></text>
    </g>
  </g>
</svg>
