<?xml version="1.0" encoding="utf-8"?>
<!-- Generator: Adobe Illustrator 23.1.0, SVG Export Plug-In . SVG Version: 6.00 Build 0)  -->
<svg version="1.1" id="Capa_1" xmlns="http://www.w3.org/2000/svg" xmlns:xlink="http://www.w3.org/1999/xlink" x="0px" y="0px"
	 viewBox="0 0 113.7 34.5" enable-background="new 0 0 113.7 34.5" xml:space="preserve">
<g id="logo_header" transform="translate(-1232 151.651)">
	<path id="logo" fill-rule="evenodd" clip-rule="evenodd" fill="#2B7BED" d="M1331.4-151.3l-0.5-0.3l-0.5,0.3l-13.8,8l-0.5,0.3v17.2
		l0.5,0.3l13.8,8l0.5,0.3l0.5-0.3l13.8-8l0.5-0.3V-143l-0.5-0.3L1331.4-151.3z M1318.1-127.5v-12.6l10.5,9.7L1318.1-127.5z
		 M1331-129.6l5.7,6.6l7-4v-6L1331-129.6z M1335.5-122.4l-5.9-6.9l-10.5,2.8l11.7,6.8L1335.5-122.4z M1318.5-141.5l11.3,10.5
		l8.7-13.6L1318.5-141.5z M1336.9-145.7l-6-3.5l-10.6,6.2L1336.9-145.7z M1331.3-131l8.4-13.1l4,2.3v7.4L1331.3-131z"/>
	<g enable-background="new    ">
		<path fill="#2B7BED" d="M1233.4-133.3l0.6-5.7h6.1v1.6h-4.5l-0.3,2.7c0.5-0.3,1.1-0.5,1.8-0.5c1.1,0,1.9,0.3,2.5,1
			s0.9,1.6,0.9,2.8c0,1.2-0.3,2.1-1,2.8c-0.7,0.7-1.6,1-2.7,1c-1,0-1.9-0.3-2.6-0.9c-0.7-0.6-1.1-1.4-1.1-2.3h1.8
			c0.1,0.6,0.3,1,0.6,1.3c0.3,0.3,0.7,0.4,1.3,0.4c0.6,0,1-0.2,1.4-0.6c0.3-0.4,0.5-1,0.5-1.7c0-0.7-0.2-1.2-0.5-1.6
			s-0.9-0.6-1.5-0.6c-0.3,0-0.6,0-0.9,0.1c-0.2,0.1-0.5,0.3-0.8,0.5L1233.4-133.3z"/>
		<path fill="#2B7BED" d="M1249.5-138l-4.5,10.3h-2l4.5-9.9h-5.9v-1.5h7.9V-138z"/>
		<path fill="#2B7BED" d="M1253.9-139l3.3,8.7l3.3-8.7h2.6v11.4h-2v-3.8l0.2-5l-3.4,8.8h-1.4l-3.4-8.8l0.2,5v3.8h-2V-139H1253.9z"/>
		<path fill="#2B7BED" d="M1274.4-133c0,1.1-0.2,2.1-0.6,2.9c-0.4,0.8-0.9,1.5-1.7,1.9c-0.7,0.5-1.5,0.7-2.5,0.7
			c-0.9,0-1.7-0.2-2.5-0.7c-0.7-0.5-1.3-1.1-1.7-1.9c-0.4-0.8-0.6-1.8-0.6-2.9v-0.6c0-1.1,0.2-2.1,0.6-2.9c0.4-0.8,0.9-1.5,1.7-1.9
			c0.7-0.5,1.5-0.7,2.5-0.7c0.9,0,1.7,0.2,2.5,0.7c0.7,0.4,1.3,1.1,1.7,1.9s0.6,1.8,0.6,2.9V-133z M1272.5-133.6
			c0-1.3-0.2-2.2-0.7-2.9s-1.2-1-2-1c-0.9,0-1.5,0.3-2,1c-0.5,0.7-0.7,1.6-0.7,2.8v0.7c0,1.3,0.2,2.2,0.7,2.9c0.5,0.7,1.2,1,2,1
			c0.9,0,1.5-0.3,2-1c0.5-0.7,0.7-1.6,0.7-2.9V-133.6z"/>
		<path fill="#2B7BED" d="M1280.2-130.1l2.9-8.9h2.2l-4.1,11.4h-1.9l-4.1-11.4h2.2L1280.2-130.1z"/>
		<path fill="#2B7BED" d="M1288.7-127.7h-2V-139h2V-127.7z"/>
		<path fill="#2B7BED" d="M1297.7-132.7h-4.7v3.5h5.5v1.6h-7.4V-139h7.4v1.6h-5.4v3.1h4.7V-132.7z"/>
		<path fill="#2B7BED" d="M1306.1-130.6c0-0.5-0.2-0.9-0.5-1.2s-1-0.5-1.9-0.8c-0.9-0.3-1.6-0.6-2.2-0.9c-1-0.7-1.6-1.5-1.6-2.5
			c0-0.9,0.4-1.7,1.1-2.3c0.7-0.6,1.7-0.9,2.9-0.9c0.8,0,1.5,0.1,2.1,0.4c0.6,0.3,1.1,0.7,1.5,1.2c0.4,0.5,0.5,1.1,0.5,1.8h-2
			c0-0.6-0.2-1.1-0.6-1.4c-0.4-0.3-0.9-0.5-1.6-0.5c-0.6,0-1.1,0.1-1.5,0.4c-0.4,0.3-0.5,0.7-0.5,1.2c0,0.4,0.2,0.8,0.6,1
			c0.4,0.3,1,0.5,1.9,0.8c0.9,0.3,1.6,0.6,2.1,0.9c0.5,0.3,0.9,0.7,1.2,1.2s0.4,0.9,0.4,1.5c0,0.9-0.4,1.7-1.1,2.3s-1.7,0.8-3,0.8
			c-0.8,0-1.6-0.2-2.3-0.5c-0.7-0.3-1.2-0.7-1.6-1.3s-0.6-1.2-0.6-1.9h2c0,0.6,0.2,1.1,0.6,1.5c0.4,0.4,1,0.5,1.8,0.5
			c0.7,0,1.2-0.1,1.6-0.4C1305.9-129.8,1306.1-130.1,1306.1-130.6z"/>
	</g>
</g>
</svg>
