<?xml version="1.0" encoding="utf-8"?>
<!-- Generator: Adobe Illustrator 23.1.0, SVG Export Plug-In . SVG Version: 6.00 Build 0)  -->
<svg version="1.1" id="Capa_1" xmlns="http://www.w3.org/2000/svg" xmlns:xlink="http://www.w3.org/1999/xlink" x="0px" y="0px"
	 viewBox="0 0 30 30" enable-background="new 0 0 30 30" xml:space="preserve">
<g>
	<path fill="#2B7BED" d="M16.9,2.5c0.3,0,0.7,0,1,0c0.1,0,0.1,0,0.2,0c1.1,0.1,2.2,0.3,3.2,0.8c3.4,1.5,5.4,4.1,6,7.8
		c0.3,1.9,0.1,3.7-0.7,5.5c-1.1,2.6-3,4.4-5.7,5.5c-1.5,0.6-3.2,0.8-4.8,0.6c-1.3-0.2-2.6-0.6-3.8-1.3c-0.4-0.2-0.5-0.2-0.8,0.1
		c-1.6,1.6-3.3,3.3-4.9,4.9c-0.3,0.3-0.6,0.5-0.9,0.7c-0.9,0.5-2,0.6-2.8-0.4c-0.3-0.3-0.4-0.7-0.5-1.1c0-0.2,0-0.4,0-0.6
		c0.2-1,0.8-1.6,1.5-2.3c1.4-1.4,2.8-2.8,4.2-4.2c0.6-0.6,0.6-0.5,0.2-1.4c-1.3-2.4-1.6-4.9-0.8-7.5c1.3-4,4-6.4,8.2-7.1
		C16.1,2.6,16.5,2.5,16.9,2.5z M24.9,12.6c0-4.1-3.3-7.5-7.5-7.5c-4.2,0-7.5,3.3-7.5,7.5c0,4.1,3.3,7.5,7.5,7.5
		C21.5,20.1,24.8,16.8,24.9,12.6z"/>
	<path fill="#2B7BED" d="M17.8,6.6c0.9,0,1.8,0.2,2.6,0.5c0.6,0.2,0.8,0.8,0.6,1.3c-0.2,0.5-0.8,0.8-1.3,0.6c-0.7-0.2-1.3-0.4-2-0.4
		c-1.7,0.1-3,1-3.8,2.5c-0.1,0.3-0.3,0.6-0.6,0.7c-0.4,0.2-0.9,0.2-1.2-0.1c-0.3-0.3-0.4-0.8-0.2-1.2c0.4-1,1.1-1.9,1.9-2.5
		C14.9,7.1,16.3,6.6,17.8,6.6z"/>
</g>
</svg>
